<svg width="21" height="20" viewBox="0 0 21 20" fill="none" xmlns="http://www.w3.org/2000/svg">
<path d="M20.1563 17.9474L15.5759 13.5148C16.6787 12.0941 17.274 10.3648 17.272 8.5879C17.272 4.04922 13.4563 0.356659 8.76636 0.356659C4.07639 0.356659 0.260742 4.04922 0.260742 8.5879C0.260742 13.1266 4.07639 16.8191 8.76636 16.8191C10.6025 16.8211 12.3894 16.245 13.8575 15.1778L18.4379 19.6105C18.6698 19.811 18.9722 19.9181 19.283 19.9097C19.5939 19.9013 19.8897 19.778 20.1096 19.5652C20.3295 19.3524 20.4568 19.0662 20.4655 18.7653C20.4742 18.4645 20.3636 18.1718 20.1563 17.9474ZM2.69092 8.5879C2.69092 7.42505 3.04724 6.28832 3.71481 5.32145C4.38239 4.35458 5.33125 3.60099 6.44139 3.15599C7.55153 2.71099 8.7731 2.59455 9.95162 2.82141C11.1301 3.04827 12.2127 3.60824 13.0623 4.43049C13.912 5.25275 14.4906 6.30037 14.7251 7.44087C14.9595 8.58138 14.8392 9.76354 14.3793 10.8379C13.9195 11.9122 13.1408 12.8304 12.1417 13.4765C11.1426 14.1225 9.96797 14.4674 8.76636 14.4674C7.15564 14.4655 5.61145 13.8454 4.47251 12.7432C3.33356 11.641 2.69285 10.1467 2.69092 8.5879Z" fill="#4A4A4A"/>
</svg>
